<?xml version="1.0" encoding="UTF-8" standalone="no"?>
<svg width="170px" height="20px" viewBox="0 0 170 20" version="1.1" xmlns="http://www.w3.org/2000/svg" xmlns:xlink="http://www.w3.org/1999/xlink" xmlns:sketch="http://www.bohemiancoding.com/sketch/ns">
    <!-- Generator: Sketch 3.0.3 (7891) - http://www.bohemiancoding.com/sketch -->
    <title>icons_toptable</title>
    <desc>Created with Sketch.</desc>
    <defs/>
    <g id="Page-1" stroke="none" stroke-width="1" fill="none" fill-rule="evenodd" sketch:type="MSPage">
        <g id="icons_toptable" sketch:type="MSArtboardGroup">
            <path d="M13.571,6.429 L10.714,6.429 L10.714,9.286 L13.571,9.286 L13.571,6.429 L13.571,6.429 Z M12.857,8.571 L11.429,8.571 L11.429,7.143 L12.857,7.143 L12.857,8.571 L12.857,8.571 Z M16.786,2.143 L16.786,0 L16.072,0 L16.072,2.143 L3.929,2.143 L3.929,0 L3.214,0 L3.214,2.143 L0,2.143 L0,20 L20,20 L20,2.143 L16.786,2.143 L16.786,2.143 Z M19.286,19.285 L0.714,19.285 L0.714,5 L19.285,5 L19.285,19.285 L19.286,19.285 Z M19.286,4.286 L0.714,4.286 L0.714,2.857 L3.214,2.857 L3.214,3.571 L3.928,3.571 L3.928,2.857 L16.071,2.857 L16.071,3.571 L16.785,3.571 L16.785,2.857 L19.285,2.857 L19.285,4.286 L19.286,4.286 Z M17.857,6.429 L15,6.429 L15,9.286 L17.857,9.286 L17.857,6.429 L17.857,6.429 Z M17.143,8.571 L15.714,8.571 L15.714,7.143 L17.143,7.143 L17.143,8.571 L17.143,8.571 Z M17.857,10.714 L15,10.714 L15,13.571 L17.857,13.571 L17.857,10.714 L17.857,10.714 Z M17.143,12.857 L15.714,12.857 L15.714,11.428 L17.143,11.428 L17.143,12.857 L17.143,12.857 Z M13.571,10.714 L10.714,10.714 L10.714,13.571 L13.571,13.571 L13.571,10.714 L13.571,10.714 Z M12.857,12.857 L11.429,12.857 L11.429,11.428 L12.857,11.428 L12.857,12.857 L12.857,12.857 Z M5,10.714 L2.143,10.714 L2.143,13.571 L5,13.571 L5,10.714 L5,10.714 Z M4.286,12.857 L2.857,12.857 L2.857,11.428 L4.286,11.428 L4.286,12.857 L4.286,12.857 Z M9.286,10.714 L6.429,10.714 L6.429,13.571 L9.286,13.571 L9.286,10.714 L9.286,10.714 Z M8.571,12.857 L7.143,12.857 L7.143,11.428 L8.571,11.428 L8.571,12.857 L8.571,12.857 Z M9.286,6.429 L6.429,6.429 L6.429,9.286 L9.286,9.286 L9.286,6.429 L9.286,6.429 Z M8.571,8.571 L7.143,8.571 L7.143,7.143 L8.571,7.143 L8.571,8.571 L8.571,8.571 Z M9.286,15 L6.429,15 L6.429,17.857 L9.286,17.857 L9.286,15 L9.286,15 Z M8.571,17.143 L7.143,17.143 L7.143,15.715 L8.571,15.715 L8.571,17.143 L8.571,17.143 Z M5,15 L2.143,15 L2.143,17.857 L5,17.857 L5,15 L5,15 Z M4.286,17.143 L2.857,17.143 L2.857,15.715 L4.286,15.715 L4.286,17.143 L4.286,17.143 Z M13.571,15 L10.714,15 L10.714,17.857 L13.571,17.857 L13.571,15 L13.571,15 Z M12.857,17.143 L11.429,17.143 L11.429,15.715 L12.857,15.715 L12.857,17.143 L12.857,17.143 Z" id="Shape" fill="#303030" sketch:type="MSShapeGroup"/>
            <path d="M40,0 C34.477,0 30,4.477 30,10 C30,15.523 34.477,20 40,20 C45.523,20 50,15.523 50,10 C50,4.477 45.523,0 40,0 L40,0 Z M40,19.285 C34.871,19.285 30.714,15.129 30.714,10 C30.714,4.872 34.871,0.714 40,0.714 C45.129,0.714 49.285,4.872 49.285,10 C49.285,15.129 45.129,19.285 40,19.285 L40,19.285 Z M40,2.5 C39.803,2.5 39.643,2.66 39.643,2.857 L39.643,9.643 L35.358,9.643 C35.16,9.643 35,9.803 35,10 C35,10.197 35.16,10.357 35.357,10.357 L40,10.357 C40.197,10.357 40.357,10.197 40.357,10 L40.357,2.857 C40.357,2.66 40.197,2.5 40,2.5 L40,2.5 Z" id="Shape" fill="#303030" sketch:type="MSShapeGroup"/>
            <path d="M79.994,17.141 C79.96,15.18 78.549,14.51 77.518,14.022 C77.234,13.887 76.965,13.76 76.776,13.627 C76.597,13.502 76.429,13.4 76.274,13.305 C75.661,12.934 75.408,12.782 75.408,11.698 C75.408,10.327 76.48,9.439 76.49,9.431 L76.557,9.376 L76.594,9.297 C76.959,8.512 76.794,7.844 76.669,7.527 C77.453,5.673 76.505,4.137 76.286,3.822 C75.757,2.233 74.63,1.897 73.772,1.897 C72.764,1.897 71.867,2.361 71.857,2.368 C71.843,2.374 71.833,2.382 71.82,2.388 C71.893,2.542 71.965,2.699 72.025,2.868 C72.058,2.921 72.099,2.988 72.142,3.06 C72.145,3.059 72.147,3.057 72.151,3.056 C72.158,3.052 72.931,2.652 73.772,2.652 C74.704,2.652 75.309,3.132 75.624,4.12 L75.645,4.183 L75.684,4.235 C75.728,4.294 76.748,5.683 75.95,7.36 L75.864,7.548 L75.965,7.725 C75.978,7.746 76.25,8.24 75.98,8.895 C75.694,9.152 74.689,10.163 74.689,11.697 C74.689,13.217 75.257,13.56 75.916,13.959 C76.059,14.047 76.214,14.139 76.379,14.254 C76.617,14.422 76.912,14.561 77.224,14.709 C78.087,15.119 79.054,15.578 79.244,16.771 L75.997,16.771 C76.11,16.998 76.205,17.25 76.276,17.523 L80,17.523 L79.994,17.141 L79.994,17.141 Z M72.86,15.061 C72.526,14.905 72.21,14.756 71.984,14.6 C71.776,14.454 71.581,14.338 71.401,14.229 C70.684,13.797 70.357,13.602 70.357,12.303 C70.357,10.681 71.633,9.633 71.645,9.624 L71.712,9.57 L71.749,9.492 C72.177,8.58 71.968,7.81 71.825,7.465 C72.756,5.316 71.629,3.539 71.39,3.199 C70.786,1.384 69.494,1 68.512,1 C67.347,1 66.313,1.532 66.296,1.542 C65.219,1.991 64.484,2.707 64.112,3.671 C63.512,5.227 64.056,6.937 64.254,7.462 C63.771,8.678 64.328,9.508 64.353,9.545 L64.428,9.625 C64.441,9.635 65.715,10.661 65.715,12.303 C65.715,13.897 64.877,14.188 63.816,14.555 L63.677,14.604 C62.483,15.014 60,15.863 60,18.627 L60,19 L75.721,19 L75.715,18.623 C75.677,16.391 74.049,15.623 72.86,15.061 L72.86,15.061 Z M60.734,18.256 C60.951,16.32 62.85,15.67 63.9,15.309 L64.042,15.262 C65.105,14.893 66.429,14.432 66.429,12.303 C66.429,10.477 65.2,9.321 64.914,9.077 C64.838,8.934 64.61,8.399 64.965,7.629 L65.037,7.472 L64.968,7.314 C64.96,7.296 64.184,5.483 64.776,3.949 C65.072,3.18 65.672,2.604 66.588,2.22 C66.598,2.215 67.521,1.744 68.512,1.744 C69.63,1.744 70.357,2.316 70.734,3.493 L70.754,3.555 L70.794,3.607 C70.807,3.624 72.068,5.304 71.11,7.3 L71.02,7.488 L71.127,7.665 C71.131,7.672 71.486,8.278 71.14,9.093 C70.828,9.368 69.644,10.531 69.644,12.302 C69.644,13.947 70.176,14.349 71.044,14.872 C71.212,14.974 71.394,15.083 71.588,15.218 C71.862,15.407 72.204,15.568 72.567,15.739 C73.609,16.231 74.779,16.782 74.974,18.255 L60.734,18.255 L60.734,18.256 Z" id="Shape" fill="#303030" sketch:type="MSShapeGroup"/>
            <path d="M101.126429,9.72892857 L100.612143,9.99 L100.758929,10.5478571 L101.930714,15 L98.0689286,15 L99.2410714,10.5478571 L99.3878571,9.99 L98.8732143,9.72892857 C98.0260714,9.29964286 97.5,8.44535714 97.5,7.5 C97.5,6.12142857 98.6214286,5 100,5 C101.378214,5 102.5,6.12142857 102.5,7.5 C102.5,8.44535714 101.973571,9.29964286 101.126429,9.72892857 M103.214286,7.5 C103.214286,5.72464286 101.775,4.28571429 100,4.28571429 C98.2246429,4.28571429 96.7857143,5.72464286 96.7857143,7.5 C96.7857143,8.75321429 97.5039286,9.83571429 98.5503571,10.3660714 L97.1428571,15.7142857 L102.857143,15.7142857 L101.449286,10.3660714 C102.495714,9.83571429 103.214286,8.75321429 103.214286,7.5 M100,19.2857143 C94.88,19.2857143 90.7142857,15.1203571 90.7142857,10 C90.7142857,4.87964286 94.88,0.714285714 100,0.714285714 C105.12,0.714285714 109.285714,4.87964286 109.285714,10 C109.285714,15.1203571 105.12,19.2857143 100,19.2857143 M100,0 C94.4771429,0 90,4.47714286 90,10 C90,15.5228571 94.4771429,20 100,20 C105.522857,20 110,15.5228571 110,10 C110,4.47714286 105.522857,0 100,0" id="Fill-49" fill="#303030" sketch:type="MSShapeGroup"/>
            <path d="M131.525252,19.2840564 C126.137178,19.2840564 121.753063,15.1173005 121.753063,9.99607213 C121.753063,7.56436351 122.735645,5.26548831 124.518918,3.52329941 C125.868656,2.20532048 127.564547,1.3133369 129.416451,0.928048563 C128.109092,2.7105874 127.404409,4.8266381 127.404409,7.04231387 C127.404409,12.4302803 131.608134,16.9023389 137.062214,17.6518479 C135.445454,18.7127299 133.532794,19.2840564 131.525252,19.2840564 M138.683474,17.0458847 C132.870114,17.0458847 128.157846,12.5670416 128.157846,7.04231387 C128.157846,4.29530441 129.323444,1.80824853 131.208726,0 C125.542379,0.159257275 121,4.57204071 121,9.99607213 C121,15.521514 125.711893,20 131.525252,20 C134.448246,20 137.092591,18.866631 139,17.038386 C138.893866,17.0415997 138.789232,17.0458847 138.683474,17.0458847" id="Fill-346" fill="#303030" sketch:type="MSShapeGroup"/>
            <path d="M159,18.2857143 C156.741429,18.2857143 154.6725,17.4778571 153.062857,16.1375 C154.071071,15.1221429 154.3375,15.0025 156.4175,14.0785714 L156.661429,13.97 C156.687143,13.9567857 156.920714,13.8360714 157.1,13.5967857 C157.358214,13.2528571 157.386071,12.8342857 157.178214,12.4192857 L157.050357,12.1628571 L156.772143,12.2325 C156.761429,12.2353571 155.679643,12.4932143 154.508214,11.7775 C155.072857,10.7842857 155.072857,8.79107143 155.072857,6.15035714 C155.072857,3.65392857 156.505357,2.22178571 159.001429,2.22178571 C160.794286,2.22178571 162.93,2.90321429 162.93,6.15035714 C162.93,9.32321429 162.93,11.0003571 163.404286,11.7725 C162.828214,12.0446429 161.756786,12.4525 160.873929,12.2325 L160.43,12.1214286 L160.43,12.5789286 C160.43,13.5032143 161.305,13.9514286 161.353571,13.9753571 C161.382143,13.9882143 163.459643,14.9482143 164.796429,16.2478571 C163.2075,17.5203571 161.194286,18.2857143 159,18.2857143" id="Fill-161" stroke="#303030" stroke-width="0.7" sketch:type="MSShapeGroup"/>
        </g>
    </g>
</svg>