<?xml version="1.0" encoding="utf-8"?>
<!-- Generator: Adobe Illustrator 16.0.0, SVG Export Plug-In . SVG Version: 6.00 Build 0)  -->
<!DOCTYPE svg PUBLIC "-//W3C//DTD SVG 1.1//EN" "http://www.w3.org/Graphics/SVG/1.1/DTD/svg11.dtd">
<svg version="1.1" id="Layer_1" xmlns="http://www.w3.org/2000/svg" xmlns:xlink="http://www.w3.org/1999/xlink" x="0px" y="0px"
	 width="81px" height="59px" viewBox="0 0 81 59" enable-background="new 0 0 81 59" xml:space="preserve">
<polygon fill="#1C1C1C" points="46.209,33.005 73.007,33.005 55.703,23.989 29.651,23.989 "/>
<polygon fill="#7D390A" points="73.19,33.101 73.175,33.093 73.173,33.101 "/>
<polygon fill="#7D390A" points="29.651,23.989 29.662,23.995 29.664,23.989 "/>
<polygon fill="#313131" points="2.878,33.005 12.315,46.003 2.878,59 68.503,59 73.173,33.101 73.175,33.093 73.19,33.005 
	73.007,33.005 46.209,33.005 "/>
<polygon fill="#444444" points="29.677,23.989 29.675,23.995 29.664,24.036 29.75,24.036 55.802,24.036 81,24.036 81,0 36.18,0 "/>
<g>
	<path fill="#F9F9F9" d="M42.772,14.651V8.5c0-0.946,0.257-1.688,0.772-2.225c0.514-0.537,1.225-0.805,2.133-0.805
		c0.857,0,1.537,0.275,2.038,0.826c0.501,0.55,0.751,1.302,0.751,2.253v1.154h-1.901v-1.32c0-0.415-0.08-0.726-0.24-0.934
		c-0.16-0.207-0.398-0.311-0.714-0.311s-0.554,0.104-0.714,0.311c-0.161,0.208-0.241,0.519-0.241,0.934v6.699
		c0,0.415,0.08,0.728,0.241,0.938c0.16,0.21,0.398,0.315,0.714,0.315s0.554-0.105,0.714-0.315s0.24-0.523,0.24-0.938v-1.635h1.901
		v1.253c0,1.051-0.248,1.862-0.743,2.432s-1.199,0.855-2.112,0.855c-0.936,0-1.643-0.282-2.121-0.847S42.772,15.747,42.772,14.651z"
		/>
	<path fill="#F9F9F9" d="M49.827,14.685l1.769-0.266c0.033,0.609,0.149,1.059,0.349,1.349c0.199,0.291,0.492,0.436,0.88,0.436
		c0.338,0,0.611-0.106,0.821-0.32c0.211-0.213,0.316-0.494,0.316-0.842c0-0.625-0.498-1.433-1.494-2.424
		c-0.078-0.078-0.136-0.136-0.175-0.174c-0.974-0.974-1.6-1.723-1.876-2.245c-0.276-0.523-0.415-1.078-0.415-1.665
		c0-0.847,0.278-1.559,0.834-2.137c0.557-0.579,1.235-0.868,2.038-0.868c0.78,0,1.42,0.267,1.918,0.801
		c0.498,0.534,0.782,1.257,0.854,2.17l-1.81,0.257c-0.033-0.537-0.129-0.921-0.286-1.154c-0.158-0.232-0.4-0.349-0.727-0.349
		c-0.299,0-0.538,0.101-0.718,0.303c-0.18,0.202-0.27,0.472-0.27,0.809c0,0.697,0.58,1.607,1.742,2.731
		c0.045,0.044,0.081,0.08,0.108,0.108c0.853,0.83,1.411,1.508,1.677,2.034s0.398,1.115,0.398,1.768c0,0.875-0.271,1.592-0.813,2.154
		c-0.542,0.562-1.229,0.843-2.059,0.843c-0.919,0-1.647-0.293-2.188-0.88C50.164,16.539,49.872,15.725,49.827,14.685z"/>
	<path fill="#F9F9F9" d="M56.833,14.685l1.769-0.266c0.033,0.609,0.149,1.059,0.349,1.349c0.199,0.291,0.492,0.436,0.88,0.436
		c0.338,0,0.611-0.106,0.821-0.32c0.211-0.213,0.316-0.494,0.316-0.842c0-0.625-0.498-1.433-1.494-2.424
		c-0.078-0.078-0.136-0.136-0.175-0.174c-0.974-0.974-1.6-1.723-1.876-2.245c-0.276-0.523-0.415-1.078-0.415-1.665
		c0-0.847,0.278-1.559,0.834-2.137c0.557-0.579,1.235-0.868,2.038-0.868c0.78,0,1.42,0.267,1.918,0.801
		c0.498,0.534,0.782,1.257,0.854,2.17l-1.81,0.257c-0.033-0.537-0.129-0.921-0.286-1.154c-0.158-0.232-0.4-0.349-0.727-0.349
		c-0.299,0-0.538,0.101-0.718,0.303c-0.18,0.202-0.27,0.472-0.27,0.809c0,0.697,0.58,1.607,1.742,2.731
		c0.045,0.044,0.081,0.08,0.108,0.108c0.853,0.83,1.411,1.508,1.677,2.034s0.398,1.115,0.398,1.768c0,0.875-0.271,1.592-0.813,2.154
		c-0.542,0.562-1.229,0.843-2.059,0.843c-0.919,0-1.647-0.293-2.188-0.88C57.17,16.539,56.878,15.725,56.833,14.685z"/>
</g>
<polygon fill="#F4E1B0" points="67.101,7.033 76.569,3.13 76.569,5.081 69.382,8.034 "/>
<polygon fill="#F4E1B0" points="69.983,8.293 76.569,5.6 76.569,7.622 72.305,9.313 "/>
<polygon fill="#934015" points="76.569,16.257 69.303,19.995 69.303,18.043 75.064,15.091 76.569,15.914 "/>
<polygon fill="#934015" points="74.582,14.775 69.303,17.468 69.303,15.396 72.722,13.754 "/>
<polygon fill="#F9CE2D" points="66.78,7.438 76.569,11.577 76.569,13.519 66.78,9.555 "/>
<polygon fill="#F9CE2D" points="68.281,10.735 76.569,14.038 76.569,16.261 68.281,12.823 "/>
<g>
	<path fill="#F9F9F9" d="M21.127,40.496h1.508l0.701,6.067c0.033,0.308,0.058,0.591,0.074,0.85c0.017,0.26,0.025,0.513,0.025,0.758
		v0.198c0.004-0.133,0.014-0.318,0.027-0.56c0.043-0.812,0.076-1.296,0.1-1.451l0.786-5.862h1.345l0.843,6.061
		c0.033,0.236,0.059,0.505,0.078,0.807c0.019,0.303,0.028,0.638,0.028,1.006c0-0.066,0.005-0.165,0.014-0.297
		c0.043-0.859,0.08-1.431,0.113-1.714l0.651-5.862h1.494l-1.593,10.238h-1.324l-0.864-5.94c-0.032-0.231-0.059-0.503-0.077-0.814
		c-0.02-0.312-0.028-0.646-0.028-1.005c-0.028,0.557-0.054,1.002-0.074,1.338c-0.021,0.335-0.039,0.559-0.054,0.672l-0.843,5.75
		h-1.316L21.127,40.496z"/>
	<path fill="#F9F9F9" d="M30.264,50.734V40.496h1.606v10.238H30.264z"/>
	<path fill="#F9F9F9" d="M33.892,50.734V40.496h1.416l2.004,6.117c0.037,0.118,0.083,0.273,0.138,0.467
		c0.054,0.193,0.109,0.402,0.166,0.623c-0.052-0.297-0.094-0.572-0.127-0.824s-0.05-0.438-0.05-0.556v-5.827h1.479v10.238h-1.479
		l-1.926-5.657c-0.01-0.024-0.021-0.06-0.035-0.106c-0.133-0.387-0.231-0.723-0.298-1.006c0.057,0.359,0.101,0.658,0.131,0.896
		c0.031,0.238,0.046,0.412,0.046,0.52v5.354H33.892z"/>
	<path fill="#F9F9F9" d="M40.968,50.734V40.496h1.416l2.004,6.117c0.037,0.118,0.083,0.273,0.138,0.467
		c0.054,0.193,0.109,0.402,0.166,0.623c-0.052-0.297-0.094-0.572-0.127-0.824s-0.05-0.438-0.05-0.556v-5.827h1.479v10.238h-1.479
		l-1.926-5.657c-0.01-0.024-0.021-0.06-0.035-0.106c-0.133-0.387-0.231-0.723-0.298-1.006c0.057,0.359,0.101,0.658,0.131,0.896
		c0.031,0.238,0.046,0.412,0.046,0.52v5.354H40.968z"/>
	<path fill="#F9F9F9" d="M48.044,50.734V40.496h4.12v1.479h-2.542v2.684h1.832v1.479h-1.832v3.059h2.542v1.537H48.044z"/>
	<path fill="#F9F9F9" d="M55.382,46.43v4.305h-1.579V40.496h2.315c0.868,0,1.496,0.233,1.883,0.701
		c0.388,0.467,0.581,1.22,0.581,2.258c0,0.643-0.078,1.162-0.233,1.559c-0.156,0.396-0.411,0.717-0.765,0.963l1.161,4.758h-1.636
		l-0.978-4.305H55.382z M55.382,41.976v2.974h0.623c0.363,0,0.616-0.109,0.758-0.329s0.212-0.626,0.212-1.222
		c0-0.537-0.074-0.909-0.223-1.115c-0.148-0.205-0.417-0.308-0.804-0.308H55.382z"/>
</g>
</svg>
